# https://github.com/mikedh/trimesh
v -1.00000000 -1.00000000 -3.00000000
v -1.00000000 -0.33333300 -3.00000000
v -0.33333300 -1.00000000 -3.00000000
v -0.33333300 -0.33333300 -3.00000000
v 0.33333300 -1.00000000 -3.00000000
v 0.33333300 -0.33333300 -3.00000000
v 1.00000000 -1.00000000 -3.00000000
v 1.00000000 -0.33333300 -3.00000000
v -1.00000000 0.33333300 -3.00000000
v -0.33333300 0.33333300 -3.00000000
v 0.33333300 0.33333300 -3.00000000
v 1.00000000 0.33333300 -3.00000000
v -1.00000000 1.00000000 -3.00000000
v -0.33333300 1.00000000 -3.00000000
v 0.33333300 1.00000000 -3.00000000
v 1.00000000 1.00000000 -3.00000000
v 1.00000000 1.00000000 3.00000000
v 0.33333300 1.00000000 3.00000000
v 1.00000000 0.33333300 3.00000000
v 0.33333300 0.33333300 3.00000000
v 1.00000000 -0.33333300 3.00000000
v 0.33333300 -0.33333300 3.00000000
v 1.00000000 -1.00000000 3.00000000
v 0.33333300 -1.00000000 3.00000000
v -0.33333300 1.00000000 3.00000000
v -0.33333300 0.33333300 3.00000000
v -0.33333300 -0.33333300 3.00000000
v -0.33333300 -1.00000000 3.00000000
v -1.00000000 1.00000000 3.00000000
v -1.00000000 0.33333300 3.00000000
v -1.00000000 -0.33333300 3.00000000
v -1.00000000 -1.00000000 3.00000000
v 1.00000000 1.00000000 -1.00000000
v 1.00000000 0.33333300 -1.00000000
v 1.00000000 -0.33333300 -1.00000000
v 1.00000000 -1.00000000 -1.00000000
v 1.00000000 1.00000000 1.00000000
v 1.00000000 0.33333300 1.00000000
v 1.00000000 -0.33333300 1.00000000
v 1.00000000 -1.00000000 1.00000000
v -1.00000000 -1.00000000 1.00000000
v -1.00000000 -0.33333300 1.00000000
v -1.00000000 -1.00000000 -1.00000000
v -1.00000000 -0.33333300 -1.00000000
v -1.00000000 0.33333300 1.00000000
v -1.00000000 0.33333300 -1.00000000
v -1.00000000 1.00000000 1.00000000
v -1.00000000 1.00000000 -1.00000000
v -0.33333300 1.00000000 -1.00000000
v 0.33333300 1.00000000 -1.00000000
v -0.33333300 1.00000000 1.00000000
v 0.33333300 1.00000000 1.00000000
v 0.33333300 -1.00000000 1.00000000
v 0.33333300 -1.00000000 -1.00000000
v -0.33333300 -1.00000000 1.00000000
v -0.33333300 -1.00000000 -1.00000000
v -1.00000000 -0.66666650 -3.00000000
v -0.66666650 -0.66666650 -3.00000000
v -0.66666650 -1.00000000 -3.00000000
v -0.66666650 -0.33333300 -3.00000000
v -0.33333300 -0.66666650 -3.00000000
v 0.00000000 -0.66666650 -3.00000000
v 0.00000000 -1.00000000 -3.00000000
v 0.00000000 -0.33333300 -3.00000000
v 0.33333300 -0.66666650 -3.00000000
v 0.66666650 -0.66666650 -3.00000000
v 0.66666650 -1.00000000 -3.00000000
v 0.66666650 -0.33333300 -3.00000000
v 1.00000000 -0.66666650 -3.00000000
v -1.00000000 0.00000000 -3.00000000
v -0.66666650 0.00000000 -3.00000000
v -0.66666650 0.33333300 -3.00000000
v -0.33333300 0.00000000 -3.00000000
v 0.00000000 0.00000000 -3.00000000
v 0.00000000 0.33333300 -3.00000000
v 0.33333300 0.00000000 -3.00000000
v 0.66666650 0.00000000 -3.00000000
v 0.66666650 0.33333300 -3.00000000
v 1.00000000 0.00000000 -3.00000000
v -1.00000000 0.66666650 -3.00000000
v -0.66666650 0.66666650 -3.00000000
v -0.66666650 1.00000000 -3.00000000
v -0.33333300 0.66666650 -3.00000000
v 0.00000000 0.66666650 -3.00000000
v 0.00000000 1.00000000 -3.00000000
v 0.33333300 0.66666650 -3.00000000
v 0.66666650 0.66666650 -3.00000000
v 0.66666650 1.00000000 -3.00000000
v 1.00000000 0.66666650 -3.00000000
v 0.66666650 1.00000000 3.00000000
v 0.66666650 0.66666650 3.00000000
v 1.00000000 0.66666650 3.00000000
v 0.33333300 0.66666650 3.00000000
v 0.66666650 0.33333300 3.00000000
v 0.66666650 0.00000000 3.00000000
v 1.00000000 0.00000000 3.00000000
v 0.33333300 0.00000000 3.00000000
v 0.66666650 -0.33333300 3.00000000
v 0.66666650 -0.66666650 3.00000000
v 1.00000000 -0.66666650 3.00000000
v 0.33333300 -0.66666650 3.00000000
v 0.66666650 -1.00000000 3.00000000
v 0.00000000 1.00000000 3.00000000
v 0.00000000 0.66666650 3.00000000
v -0.33333300 0.66666650 3.00000000
v 0.00000000 0.33333300 3.00000000
v 0.00000000 0.00000000 3.00000000
v -0.33333300 0.00000000 3.00000000
v 0.00000000 -0.33333300 3.00000000
v 0.00000000 -0.66666650 3.00000000
v -0.33333300 -0.66666650 3.00000000
v 0.00000000 -1.00000000 3.00000000
v -0.66666650 1.00000000 3.00000000
v -0.66666650 0.66666650 3.00000000
v -1.00000000 0.66666650 3.00000000
v -0.66666650 0.33333300 3.00000000
v -0.66666650 0.00000000 3.00000000
v -1.00000000 0.00000000 3.00000000
v -0.66666650 -0.33333300 3.00000000
v -0.66666650 -0.66666650 3.00000000
v -1.00000000 -0.66666650 3.00000000
v -0.66666650 -1.00000000 3.00000000
v 1.00000000 1.00000000 -2.00000000
v 1.00000000 0.66666650 -2.00000000
v 1.00000000 0.66666650 -1.00000000
v 1.00000000 0.33333300 -2.00000000
v 1.00000000 0.00000000 -2.00000000
v 1.00000000 0.00000000 -1.00000000
v 1.00000000 -0.33333300 -2.00000000
v 1.00000000 -0.66666650 -2.00000000
v 1.00000000 -0.66666650 -1.00000000
v 1.00000000 -1.00000000 -2.00000000
v 1.00000000 1.00000000 0.00000000
v 1.00000000 0.66666650 0.00000000
v 1.00000000 0.66666650 1.00000000
v 1.00000000 0.33333300 0.00000000
v 1.00000000 0.00000000 0.00000000
v 1.00000000 0.00000000 1.00000000
v 1.00000000 -0.33333300 0.00000000
v 1.00000000 -0.66666650 0.00000000
v 1.00000000 -0.66666650 1.00000000
v 1.00000000 -1.00000000 0.00000000
v 1.00000000 1.00000000 2.00000000
v 1.00000000 0.66666650 2.00000000
v 1.00000000 0.33333300 2.00000000
v 1.00000000 0.00000000 2.00000000
v 1.00000000 -0.33333300 2.00000000
v 1.00000000 -0.66666650 2.00000000
v 1.00000000 -1.00000000 2.00000000
v -1.00000000 -0.66666650 2.00000000
v -1.00000000 -1.00000000 2.00000000
v -1.00000000 -0.33333300 2.00000000
v -1.00000000 -0.66666650 1.00000000
v -1.00000000 -0.66666650 0.00000000
v -1.00000000 -1.00000000 0.00000000
v -1.00000000 -0.33333300 0.00000000
v -1.00000000 -0.66666650 -1.00000000
v -1.00000000 -0.66666650 -2.00000000
v -1.00000000 -1.00000000 -2.00000000
v -1.00000000 -0.33333300 -2.00000000
v -1.00000000 0.00000000 2.00000000
v -1.00000000 0.33333300 2.00000000
v -1.00000000 0.00000000 1.00000000
v -1.00000000 0.00000000 0.00000000
v -1.00000000 0.33333300 0.00000000
v -1.00000000 0.00000000 -1.00000000
v -1.00000000 0.00000000 -2.00000000
v -1.00000000 0.33333300 -2.00000000
v -1.00000000 0.66666650 2.00000000
v -1.00000000 1.00000000 2.00000000
v -1.00000000 0.66666650 1.00000000
v -1.00000000 0.66666650 0.00000000
v -1.00000000 1.00000000 0.00000000
v -1.00000000 0.66666650 -1.00000000
v -1.00000000 0.66666650 -2.00000000
v -1.00000000 1.00000000 -2.00000000
v -0.66666650 1.00000000 -2.00000000
v -0.66666650 1.00000000 -1.00000000
v -0.33333300 1.00000000 -2.00000000
v 0.00000000 1.00000000 -2.00000000
v 0.00000000 1.00000000 -1.00000000
v 0.33333300 1.00000000 -2.00000000
v 0.66666650 1.00000000 -2.00000000
v 0.66666650 1.00000000 -1.00000000
v -0.66666650 1.00000000 0.00000000
v -0.66666650 1.00000000 1.00000000
v -0.33333300 1.00000000 0.00000000
v 0.00000000 1.00000000 0.00000000
v 0.00000000 1.00000000 1.00000000
v 0.33333300 1.00000000 0.00000000
v 0.66666650 1.00000000 0.00000000
v 0.66666650 1.00000000 1.00000000
v -0.66666650 1.00000000 2.00000000
v -0.33333300 1.00000000 2.00000000
v 0.00000000 1.00000000 2.00000000
v 0.33333300 1.00000000 2.00000000
v 0.66666650 1.00000000 2.00000000
v 0.66666650 -1.00000000 2.00000000
v 0.33333300 -1.00000000 2.00000000
v 0.66666650 -1.00000000 1.00000000
v 0.66666650 -1.00000000 0.00000000
v 0.33333300 -1.00000000 0.00000000
v 0.66666650 -1.00000000 -1.00000000
v 0.66666650 -1.00000000 -2.00000000
v 0.33333300 -1.00000000 -2.00000000
v 0.00000000 -1.00000000 2.00000000
v -0.33333300 -1.00000000 2.00000000
v 0.00000000 -1.00000000 1.00000000
v 0.00000000 -1.00000000 0.00000000
v -0.33333300 -1.00000000 0.00000000
v 0.00000000 -1.00000000 -1.00000000
v 0.00000000 -1.00000000 -2.00000000
v -0.33333300 -1.00000000 -2.00000000
v -0.66666650 -1.00000000 2.00000000
v -0.66666650 -1.00000000 1.00000000
v -0.66666650 -1.00000000 0.00000000
v -0.66666650 -1.00000000 -1.00000000
v -0.66666650 -1.00000000 -2.00000000
f 57 58 59
f 1 57 59
f 2 58 57
f 3 59 58
f 60 61 58
f 2 60 58
f 4 61 60
f 3 58 61
f 61 62 63
f 3 61 63
f 4 62 61
f 5 63 62
f 64 65 62
f 4 64 62
f 6 65 64
f 5 62 65
f 65 66 67
f 5 65 67
f 6 66 65
f 7 67 66
f 68 69 66
f 6 68 66
f 8 69 68
f 7 66 69
f 70 71 60
f 2 70 60
f 9 71 70
f 4 60 71
f 72 73 71
f 9 72 71
f 10 73 72
f 4 71 73
f 73 74 64
f 4 73 64
f 10 74 73
f 6 64 74
f 75 76 74
f 10 75 74
f 11 76 75
f 6 74 76
f 76 77 68
f 6 76 68
f 11 77 76
f 8 68 77
f 78 79 77
f 11 78 77
f 12 79 78
f 8 77 79
f 80 81 72
f 9 80 72
f 13 81 80
f 10 72 81
f 82 83 81
f 13 82 81
f 14 83 82
f 10 81 83
f 83 84 75
f 10 83 75
f 14 84 83
f 11 75 84
f 85 86 84
f 14 85 84
f 15 86 85
f 11 84 86
f 86 87 78
f 11 86 78
f 15 87 86
f 12 78 87
f 88 89 87
f 15 88 87
f 16 89 88
f 12 87 89
f 90 91 92
f 17 90 92
f 18 91 90
f 19 92 91
f 93 94 91
f 18 93 91
f 20 94 93
f 19 91 94
f 94 95 96
f 19 94 96
f 20 95 94
f 21 96 95
f 97 98 95
f 20 97 95
f 22 98 97
f 21 95 98
f 98 99 100
f 21 98 100
f 22 99 98
f 23 100 99
f 101 102 99
f 22 101 99
f 24 102 101
f 23 99 102
f 103 104 93
f 18 103 93
f 25 104 103
f 20 93 104
f 105 106 104
f 25 105 104
f 26 106 105
f 20 104 106
f 106 107 97
f 20 106 97
f 26 107 106
f 22 97 107
f 108 109 107
f 26 108 107
f 27 109 108
f 22 107 109
f 109 110 101
f 22 109 101
f 27 110 109
f 24 101 110
f 111 112 110
f 27 111 110
f 28 112 111
f 24 110 112
f 113 114 105
f 25 113 105
f 29 114 113
f 26 105 114
f 115 116 114
f 29 115 114
f 30 116 115
f 26 114 116
f 116 117 108
f 26 116 108
f 30 117 116
f 27 108 117
f 118 119 117
f 30 118 117
f 31 119 118
f 27 117 119
f 119 120 111
f 27 119 111
f 31 120 119
f 28 111 120
f 121 122 120
f 31 121 120
f 32 122 121
f 28 120 122
f 123 124 89
f 16 123 89
f 33 124 123
f 12 89 124
f 125 126 124
f 33 125 124
f 34 126 125
f 12 124 126
f 126 127 79
f 12 126 79
f 34 127 126
f 8 79 127
f 128 129 127
f 34 128 127
f 35 129 128
f 8 127 129
f 129 130 69
f 8 129 69
f 35 130 129
f 7 69 130
f 131 132 130
f 35 131 130
f 36 132 131
f 7 130 132
f 133 134 125
f 33 133 125
f 37 134 133
f 34 125 134
f 135 136 134
f 37 135 134
f 38 136 135
f 34 134 136
f 136 137 128
f 34 136 128
f 38 137 136
f 35 128 137
f 138 139 137
f 38 138 137
f 39 139 138
f 35 137 139
f 139 140 131
f 35 139 131
f 39 140 139
f 36 131 140
f 141 142 140
f 39 141 140
f 40 142 141
f 36 140 142
f 143 144 135
f 37 143 135
f 17 144 143
f 38 135 144
f 92 145 144
f 17 92 144
f 19 145 92
f 38 144 145
f 145 146 138
f 38 145 138
f 19 146 145
f 39 138 146
f 96 147 146
f 19 96 146
f 21 147 96
f 39 146 147
f 147 148 141
f 39 147 141
f 21 148 147
f 40 141 148
f 100 149 148
f 21 100 148
f 23 149 100
f 40 148 149
f 121 150 151
f 32 121 151
f 31 150 121
f 41 151 150
f 152 153 150
f 31 152 150
f 42 153 152
f 41 150 153
f 153 154 155
f 41 153 155
f 42 154 153
f 43 155 154
f 156 157 154
f 42 156 154
f 44 157 156
f 43 154 157
f 157 158 159
f 43 157 159
f 44 158 157
f 1 159 158
f 160 57 158
f 44 160 158
f 2 57 160
f 1 158 57
f 118 161 152
f 31 118 152
f 30 161 118
f 42 152 161
f 162 163 161
f 30 162 161
f 45 163 162
f 42 161 163
f 163 164 156
f 42 163 156
f 45 164 163
f 44 156 164
f 165 166 164
f 45 165 164
f 46 166 165
f 44 164 166
f 166 167 160
f 44 166 160
f 46 167 166
f 2 160 167
f 168 70 167
f 46 168 167
f 9 70 168
f 2 167 70
f 115 169 162
f 30 115 162
f 29 169 115
f 45 162 169
f 170 171 169
f 29 170 169
f 47 171 170
f 45 169 171
f 171 172 165
f 45 171 165
f 47 172 171
f 46 165 172
f 173 174 172
f 47 173 172
f 48 174 173
f 46 172 174
f 174 175 168
f 46 174 168
f 48 175 174
f 9 168 175
f 176 80 175
f 48 176 175
f 13 80 176
f 9 175 80
f 176 177 82
f 13 176 82
f 48 177 176
f 14 82 177
f 178 179 177
f 48 178 177
f 49 179 178
f 14 177 179
f 179 180 85
f 14 179 85
f 49 180 179
f 15 85 180
f 181 182 180
f 49 181 180
f 50 182 181
f 15 180 182
f 182 183 88
f 15 182 88
f 50 183 182
f 16 88 183
f 184 123 183
f 50 184 183
f 33 123 184
f 16 183 123
f 173 185 178
f 48 173 178
f 47 185 173
f 49 178 185
f 186 187 185
f 47 186 185
f 51 187 186
f 49 185 187
f 187 188 181
f 49 187 181
f 51 188 187
f 50 181 188
f 189 190 188
f 51 189 188
f 52 190 189
f 50 188 190
f 190 191 184
f 50 190 184
f 52 191 190
f 33 184 191
f 192 133 191
f 52 192 191
f 37 133 192
f 33 191 133
f 170 193 186
f 47 170 186
f 29 193 170
f 51 186 193
f 113 194 193
f 29 113 193
f 25 194 113
f 51 193 194
f 194 195 189
f 51 194 189
f 25 195 194
f 52 189 195
f 103 196 195
f 25 103 195
f 18 196 103
f 52 195 196
f 196 197 192
f 52 196 192
f 18 197 196
f 37 192 197
f 90 143 197
f 18 90 197
f 17 143 90
f 37 197 143
f 102 198 149
f 23 102 149
f 24 198 102
f 40 149 198
f 199 200 198
f 24 199 198
f 53 200 199
f 40 198 200
f 200 201 142
f 40 200 142
f 53 201 200
f 36 142 201
f 202 203 201
f 53 202 201
f 54 203 202
f 36 201 203
f 203 204 132
f 36 203 132
f 54 204 203
f 7 132 204
f 205 67 204
f 54 205 204
f 5 67 205
f 7 204 67
f 112 206 199
f 24 112 199
f 28 206 112
f 53 199 206
f 207 208 206
f 28 207 206
f 55 208 207
f 53 206 208
f 208 209 202
f 53 208 202
f 55 209 208
f 54 202 209
f 210 211 209
f 55 210 209
f 56 211 210
f 54 209 211
f 211 212 205
f 54 211 205
f 56 212 211
f 5 205 212
f 213 63 212
f 56 213 212
f 3 63 213
f 5 212 63
f 122 214 207
f 28 122 207
f 32 214 122
f 55 207 214
f 151 215 214
f 32 151 214
f 41 215 151
f 55 214 215
f 215 216 210
f 55 215 210
f 41 216 215
f 56 210 216
f 155 217 216
f 41 155 216
f 43 217 155
f 56 216 217
f 217 218 213
f 56 217 213
f 43 218 217
f 3 213 218
f 159 59 218
f 43 159 218
f 1 59 159
f 3 218 59

